<svg width="13" height="16" viewBox="0 0 13 16" fill="none" xmlns="http://www.w3.org/2000/svg">
<g id="&#240;&#159;&#166;&#134; icon &#34;humidity&#34;">
<path id="Vector" d="M0.5 9.81077C0.5 9.07475 0.700732 8.23 1.1022 7.27653C1.50366 6.32305 2.02222 5.39467 2.65787 4.5081C3.96262 2.78515 5.1001 1.4804 6.05358 0.602195L6.68087 0C6.88996 0.217459 7.12415 0.418191 7.37506 0.602195C7.71798 0.953476 8.2449 1.53058 8.94746 2.35024C9.65003 3.16989 10.2606 3.89754 10.7624 4.56665C11.3562 5.4114 11.8664 6.32305 12.2763 7.28489C12.6861 8.24673 12.8952 9.09148 12.8952 9.81913C12.8952 10.6555 12.7363 11.4501 12.4101 12.2112C12.0839 12.9723 11.649 13.633 11.097 14.185C10.545 14.7371 9.88421 15.1803 9.11474 15.5065C8.34527 15.8327 7.53398 16 6.68087 16C5.84448 16 5.04992 15.8411 4.28881 15.5233C3.52771 15.2054 2.86696 14.7789 2.31495 14.2269C1.76294 13.6832 1.31965 13.0225 0.993465 12.2614C0.667276 11.5003 0.5 10.6806 0.5 9.81077ZM2.39022 7.36017C2.39022 8.05436 2.53241 8.60638 2.82514 9.02457C3.11788 9.4344 3.56116 9.64349 4.15499 9.64349C4.75719 9.64349 5.20047 9.4344 5.50157 9.02457C5.7943 8.61474 5.94485 8.06273 5.95321 7.36017C5.94485 6.65761 5.7943 6.10559 5.50157 5.6874C5.20883 5.27757 4.75719 5.06848 4.15499 5.06848C3.56116 5.06848 3.11788 5.27757 2.82514 5.6874C2.53241 6.10559 2.39022 6.65761 2.39022 7.36017ZM3.70335 7.36017C3.70335 7.23471 3.70335 7.13434 3.70335 7.06743C3.70335 7.00052 3.71171 6.90852 3.72007 6.79143C3.72844 6.67433 3.7368 6.58233 3.76189 6.52378C3.78698 6.46524 3.80371 6.38996 3.83717 6.32305C3.87062 6.25614 3.91244 6.1976 3.96262 6.1725C4.02117 6.13905 4.07972 6.12232 4.15499 6.12232C4.27209 6.12232 4.36409 6.15578 4.431 6.22269C4.49791 6.2896 4.54809 6.39833 4.57318 6.54051C4.59827 6.69106 4.615 6.80815 4.62337 6.91688C4.63173 7.02561 4.63173 7.1678 4.63173 7.3518C4.63173 7.54417 4.63173 7.68636 4.62337 7.78672C4.615 7.88709 4.59827 8.01255 4.57318 8.16309C4.54809 8.30528 4.49791 8.41401 4.431 8.48092C4.36409 8.54783 4.27209 8.58129 4.15499 8.58129C4.07972 8.58129 4.02117 8.56456 3.96262 8.5311C3.90408 8.49765 3.86226 8.44746 3.83717 8.38055C3.80371 8.31364 3.77862 8.23837 3.76189 8.17982C3.74516 8.11291 3.72844 8.02091 3.72007 7.91218C3.71171 7.79509 3.70335 7.70308 3.70335 7.64454C3.70335 7.58599 3.70335 7.48562 3.70335 7.36017ZM4.19681 13.8421H5.30084L9.47439 4.85938H8.34527L4.19681 13.8421ZM7.79326 11.3413C7.80162 12.0439 7.96053 12.5959 8.25327 13.0141C8.546 13.4239 8.99765 13.633 9.59148 13.633C10.1937 13.633 10.637 13.4239 10.9297 13.0141C11.2224 12.6043 11.3646 12.0439 11.373 11.3413C11.3646 10.6388 11.2224 10.0868 10.9297 9.67695C10.637 9.26712 10.1937 9.05802 9.59148 9.05802C8.99765 9.05802 8.546 9.26712 8.25327 9.67695C7.95217 10.0868 7.80162 10.6388 7.79326 11.3413ZM9.10638 11.3413C9.10638 11.149 9.10638 11.0068 9.11474 10.9064C9.12311 10.8061 9.13983 10.6806 9.16492 10.5301C9.19002 10.3795 9.2402 10.2791 9.30711 10.2122C9.37402 10.1453 9.46602 10.1119 9.58312 10.1119C9.65839 10.1119 9.7253 10.1286 9.78385 10.162C9.84239 10.1955 9.88421 10.2457 9.91767 10.321C9.95112 10.3962 9.97622 10.4631 10.0013 10.5217C10.0264 10.5802 10.0348 10.6722 10.0431 10.7893L10.0515 11.057V11.3413V11.6341L10.0431 11.9017L10.0013 12.1694L9.91767 12.3701L9.78385 12.529L9.58312 12.5792C9.46602 12.5792 9.37402 12.5457 9.30711 12.4788C9.2402 12.4119 9.19002 12.3032 9.16492 12.161C9.13983 12.0105 9.12311 11.885 9.11474 11.7846C9.10638 11.6843 9.10638 11.5337 9.10638 11.3413Z" fill="white"/>
</g>
</svg>
