<svg width="25" height="24" viewBox="0 0 25 24" fill="none" xmlns="http://www.w3.org/2000/svg">
<g id="Icons/dark_mode">
<path id="icon" d="M10.3513 5.64537L10.6278 4.66247L9.68181 5.04677C6.93986 6.16069 5 8.85954 5 12C5 16.1361 8.36386 19.5 12.5 19.5C15.6405 19.5 18.3393 17.5601 19.4532 14.8182L19.8375 13.8722L18.8546 14.1487C18.2603 14.3158 17.636 14.4 17 14.4C13.1961 14.4 10.1 11.3039 10.1 7.5C10.1 6.86403 10.1842 6.23967 10.3513 5.64537ZM4 12C4 7.30614 7.80614 3.5 12.5 3.5C12.5519 3.5 12.604 3.50055 12.656 3.5016C11.6892 4.55437 11.1 5.96112 11.1 7.5C11.1 10.7561 13.7439 13.4 17 13.4C18.5464 13.4 19.9483 12.811 20.9984 11.845C20.9995 11.8967 21 11.9484 21 12C21 16.6939 17.1939 20.5 12.5 20.5C7.80614 20.5 4 16.6939 4 12Z" stroke="black"/>
</g>
</svg>
