<svg width="16" height="14" viewBox="0 0 16 14" fill="none" xmlns="http://www.w3.org/2000/svg">
<g id="&#240;&#159;&#166;&#134; icon &#34;cloudy gusts&#34;">
<path id="Vector" d="M0 10.2113C0 10.0356 0.0562143 9.88802 0.17567 9.76856C0.295125 9.65613 0.435661 9.59992 0.597277 9.59992H4.4058C4.92578 9.59992 5.36847 9.78262 5.73386 10.155C6.09925 10.5275 6.28195 10.9701 6.28195 11.4901C6.28195 12.0101 6.09925 12.4598 5.73386 12.8252C5.36847 13.1906 4.92578 13.3733 4.4058 13.3733C3.88582 13.3733 3.4361 13.1906 3.07071 12.8182C2.95828 12.7058 2.90909 12.5652 2.90909 12.3966C2.90909 12.2279 2.96531 12.0804 3.07071 11.975C3.17611 11.8625 3.31664 11.8063 3.49231 11.8063C3.65393 11.8063 3.79447 11.8625 3.92095 11.975C4.06148 12.1085 4.2231 12.1788 4.4058 12.1788C4.58849 12.1788 4.75011 12.1085 4.88362 11.975C5.01713 11.8415 5.0874 11.6798 5.0874 11.4831C5.0874 11.3004 5.01713 11.1388 4.88362 11.0053C4.75011 10.8718 4.58849 10.8015 4.4058 10.8015H0.597277C0.435661 10.8015 0.295125 10.7453 0.17567 10.6258C0.0562143 10.5064 0 10.3799 0 10.2113ZM0 8.07511C0 7.90646 0.0562143 7.7589 0.17567 7.63945C0.295125 7.52702 0.435661 7.4708 0.597277 7.4708H8.01054C8.19324 7.4708 8.35485 7.40053 8.48836 7.26703C8.62187 7.13352 8.69214 6.96487 8.69214 6.78218C8.69214 6.59948 8.62187 6.43084 8.48836 6.29733C8.35485 6.16382 8.19324 6.09355 8.01054 6.09355C7.81379 6.09355 7.6592 6.15679 7.53272 6.2903C7.40624 6.3957 7.25867 6.45192 7.083 6.45192C6.91436 6.45192 6.77383 6.3957 6.6614 6.2903C6.556 6.1849 6.49978 6.04436 6.49978 5.86869C6.49978 5.69302 6.54897 5.55249 6.6614 5.44006C7.01976 5.08169 7.46948 4.90602 8.01054 4.90602C8.53052 4.90602 8.98024 5.08872 9.34563 5.45411C9.71102 5.81951 9.89372 6.2622 9.89372 6.77515C9.89372 7.28811 9.71102 7.73782 9.34563 8.10321C8.98024 8.46861 8.53755 8.6513 8.01054 8.6513H0.597277C0.428634 8.6513 0.288098 8.59509 0.17567 8.48266C0.0562143 8.37726 0 8.23672 0 8.07511ZM1.51076 6.41678C1.51076 6.473 1.54589 6.50111 1.62319 6.50111H2.63505C2.69126 6.50111 2.74045 6.46597 2.78964 6.3957C2.94423 6.01626 3.19719 5.70005 3.52745 5.44709C3.86473 5.19412 4.23715 5.05359 4.64471 5.02548L5.01713 4.96927C5.10848 4.96927 5.15766 4.9271 5.15766 4.84981L5.20685 4.48442C5.28415 3.72552 5.60035 3.08609 6.16952 2.57313C6.73869 2.06017 7.40624 1.80018 8.17918 1.80018C8.95916 1.80018 9.63373 2.05315 10.2029 2.5661C10.7721 3.07906 11.0953 3.7185 11.1796 4.48442L11.2288 4.899C11.2288 4.97629 11.271 5.01845 11.3483 5.01845H12.4866C13.126 5.01845 13.6671 5.24331 14.1238 5.69302C14.5806 6.14274 14.8054 6.67677 14.8054 7.30919C14.8054 7.93457 14.5806 8.47563 14.1238 8.92535C13.6671 9.37506 13.126 9.59992 12.4866 9.59992H7.63109C7.54677 9.59992 7.49758 9.64208 7.49758 9.71937V10.6961C7.49758 10.7734 7.53975 10.8156 7.63109 10.8156H12.4866C13.126 10.8156 13.7093 10.661 14.2503 10.3448C14.7914 10.0356 15.213 9.60695 15.5292 9.07291C15.8454 8.53185 16 7.94862 16 7.31621C16 6.67677 15.8454 6.09355 15.5292 5.55952C15.213 5.02548 14.7914 4.59685 14.2503 4.28767C13.7093 3.97849 13.126 3.81687 12.4866 3.81687H12.2688C12.0509 2.88231 11.5591 2.11639 10.7931 1.51911C10.0343 0.921834 9.15591 0.626709 8.17216 0.626709C7.18138 0.626709 6.30303 0.935888 5.53711 1.55425C4.77119 2.1726 4.28634 2.9596 4.08257 3.92227C3.47826 4.06281 2.94423 4.35091 2.48046 4.78657C2.01669 5.22223 1.69346 5.74221 1.51076 6.33949V6.3676V6.41678Z" fill="white"/>
</g>
</svg>
