<svg width="16" height="10" viewBox="0 0 16 10" fill="none" xmlns="http://www.w3.org/2000/svg">
<g id="&#240;&#159;&#166;&#134; icon &#34;strong wind&#34;">
<path id="Vector" d="M0 6.10589C0 6.26724 0.0605043 6.40841 0.188235 6.5227C0.295798 6.65043 0.436975 6.71093 0.611765 6.71093H10.4874C10.6824 6.71093 10.8437 6.77816 10.9782 6.91261C11.1126 7.04707 11.1798 7.21514 11.1798 7.41009C11.1798 7.60505 11.1126 7.7664 10.9782 7.89413C10.8437 8.02186 10.6824 8.08909 10.4807 8.08909C10.2857 8.08909 10.1176 8.02186 9.98992 7.89413C9.88235 7.77312 9.7479 7.71934 9.58656 7.71934C9.41849 7.71934 9.27731 7.77984 9.1563 7.89413C9.03529 8.00841 8.97479 8.14959 8.97479 8.30421C8.97479 8.47228 9.03529 8.61346 9.16302 8.72774C9.5395 9.09749 9.98319 9.28572 10.4807 9.28572C11.005 9.28572 11.4555 9.10421 11.8319 8.74119C12.2084 8.37816 12.3899 7.94119 12.3899 7.41682C12.3899 6.89245 12.2017 6.44875 11.8252 6.07228C11.4487 5.69581 10.9983 5.50757 10.4807 5.50757H0.611765C0.443698 5.50757 0.302521 5.56808 0.181513 5.68236C0.0605042 5.79665 0 5.93782 0 6.10589ZM0 3.90085C0 4.05547 0.0605043 4.18993 0.188235 4.31093C0.302521 4.43194 0.443698 4.48572 0.611765 4.48572H14.084C14.6084 4.48572 15.0588 4.30421 15.4353 3.93446C15.8118 3.57144 16 3.12774 16 2.61009C16 2.09245 15.8118 1.64203 15.4353 1.27228C15.0588 0.90253 14.6084 0.714294 14.084 0.714294C13.5664 0.714294 13.1294 0.895807 12.7731 1.25211C12.6521 1.35967 12.5916 1.50757 12.5916 1.70253C12.5916 1.87732 12.6521 2.0185 12.7664 2.12606C12.8807 2.23362 13.0218 2.2874 13.1899 2.2874C13.3513 2.2874 13.4924 2.23362 13.6134 2.12606C13.7412 1.98488 13.8958 1.91766 14.084 1.91766C14.279 1.91766 14.4403 1.98488 14.5748 2.11934C14.7092 2.25379 14.7765 2.41514 14.7765 2.61009C14.7765 2.80505 14.7092 2.9664 14.5748 3.09413C14.4403 3.22186 14.279 3.28908 14.084 3.28908H0.611765C0.443698 3.28908 0.302521 3.34959 0.181513 3.46387C0.0605042 3.59161 0 3.73278 0 3.90085Z" fill="white"/>
</g>
</svg>
